<svg width="231" height="60" viewBox="0 0 231 60" fill="none" xmlns="http://www.w3.org/2000/svg">
    <path d="M42.514 24.239c1.975-.02 1.975-1.605 0-1.624-1.974.02-1.974 1.604 0 1.624zM38.182 25.96c.643.254 1.903.078 2.176-.428.357-.643-.487-1.066-1.41-1.079-1.357-.045-2.15 1.04-.766 1.507z" fill="#009373"/>
    <path d="m72.479 31.124-3.47-3.469a.741.741 0 0 0-1.032 0l-3.469 3.47c-.669.675.351 1.701 1.033 1.032l2.222-2.222c-.013 15.778-12.914 28.6-28.744 28.581-11.776.507-22.254-8.899-22.124-20.98.04-1.378 1.806-2.229 2.969-1.547 1.708.936.974 3.248.974 4.794 0 1.423.065 2.839.22 4.255a.735.735 0 0 0 .793.643.725.725 0 0 0 .657-.78c-.091-1.182-.195-2.37-.208-3.56-.013-.89-.046-1.753.727-2.338.656-.493 1.611-.571 2.3-.09 1.507.83.876 2.754.902 4.13.027 1.202.098 2.398.228 3.586l.175 1.345a.736.736 0 0 0 .819.63.732.732 0 0 0 .63-.819c-.189-1.448-.345-2.916-.357-4.378-.007-.993.792-1.812 1.766-1.922.598-.065 1.209.201 1.618.623.337.345.493.8.552 1.273.117.962-.117 1.93.026 2.885 0 .026.61 4.988.61 5.014.189.942 1.592.676 1.43-.266 0 0-.533-3.313-.585-4.71-.052-1.396 1.637-2.396 2.845-1.688a1.897 1.897 0 0 1 1.013 1.702c-.026 1.201.11 3.28.364 4.995.37 2.098 4.566 1.448 5.879.552l13.205-7.62c1.728-.922 1.735-3.624 0-4.547l-.766-.441.766-.442c1.897-1.072 1.663-3.878-.312-4.729 1.975-.85 2.209-3.657.312-4.729l-.766-.441.766-.442a2.597 2.597 0 0 0 1.293-2.592c5.021-3.462 4.885-11.211-.24-14.498h3.481a28.474 28.474 0 0 1 6.366 13.667c.169.935 1.585.701 1.436-.247C61.676-11.091 10.445-6.76 9.1 29.61l-2.234-2.235c-.676-.669-1.702.35-1.033 1.033l3.469 3.469a.73.73 0 0 0 1.033 0l3.468-3.47c.67-.675-.35-1.7-1.033-1.032l-2.214 2.215a28.487 28.487 0 0 1 6.3-17.564v14.752c0 .402.325.727.728.727h3.15c-.76 2.78.793 5.41 3.332 6.58-.831.448-1.714.981-2.195 1.825-1.721-2.767-6.262-1.747-6.43 1.585-.137 12.96 11.061 23.04 23.67 22.482 16.596-.026 30.094-13.492 30.107-30.036l2.221 2.228c.676.669 1.702-.35 1.033-1.033l.007-.013zM33.355 43.401c-.078.045-.15.097-.227.15.045-.033-.007-.37-.013-.423a3.373 3.373 0 0 0-.377-1.254 3.302 3.302 0 0 0-1.163-1.266c-1.09-.682-2.435-.819-3.579-.163-.026.013-.208.104-.208.13.065-2.468-2.845-4.235-5.02-3.13.253-1.339 1.734-1.923 2.76-2.534 17.805 9.938 11.38 9.906 29.159 0l1.04.598c.766.409.772 1.61 0 2.026l-14.778 8.536c-.8.513-.117 1.721.727 1.26 2.89-1.67 9.737-5.619 12.556-7.25l1.494.865c.767.409.773 1.61 0 2.026l-13.205 7.62a4.854 4.854 0 0 1-3.242.571.683.683 0 0 1-.545-.578c-.143-.961-.182-1.936-.221-2.91-.046-1.234.032-2.546-.825-3.547a3.546 3.546 0 0 0-2.839-1.201 3.108 3.108 0 0 0-1.5.467l.006.007zm12.01-24.04-2.98.526.564-2.099c.682.397 1.956 1.13 2.644 1.527l-.227.039v.006zm2.553 1.305 3.378 1.949-3.657.76.273-2.715.007.006zM24.003 32.352c-1.663-.93-2.436-3.086-1.722-4.852a4.014 4.014 0 0 1 1.721-2.04l8.99-5.19c.975-.565 4.56-2.63 5.593-3.229a3.052 3.052 0 0 1 3.053 0l-.961 3.58c-.15.493.325 1.013.831.909 1.338-.24 3.625-.643 4.944-.877l-.364 3.573c-.059.474.415.89.877.786.994-.208 5.15-1.079 6.223-1.3l2.54 1.469c.532.318.76 1.052.428 1.598a1.131 1.131 0 0 1-.429.428l-5.748 3.32-10.238 5.91a.726.726 0 0 0-.266.994c.202.351.65.468.994.267 3.027-1.748 10.835-6.25 13.758-7.945l1.494.864c.766.41.773 1.611 0 2.027-.747.422-1.754 1.02-2.495 1.442L42.521 40.27a4.85 4.85 0 0 1-4.827 0l-13.699-7.905.006-.013zm36.005-13.648c0 2.358-1.124 4.45-2.852 5.794a2.644 2.644 0 0 0-.695-.584l-11.023-6.366c1.683-8.834 14.271-7.886 14.57 1.156zm-.344-8.788H53.4V5.07a28.552 28.552 0 0 1 6.262 4.846zm-20.5-8.62c4.572 0 8.918 1.072 12.776 2.994v5.626h-6.742c-.955.013-.955 1.442 0 1.455h2.63a8.814 8.814 0 0 0-3.734 5.404l-1.735-1a4.523 4.523 0 0 0-4.508 0l-3.41 1.968v-7.106a.726.726 0 0 0-.727-.728H18.72c5.196-5.307 12.432-8.613 20.435-8.613h.006zM18.323 26.038V11.364h14.674v7.217l-9.718 5.612a5.47 5.47 0 0 0-1.89 1.845h-3.066z" fill="#009373"/>
    <path d="M6.476 34.151c-2.254-.338-4.495.448-6.476 2.04 2.832 4.39 8.094 5.17 12.075 1.792-1.429-2.098-3.351-3.5-5.599-3.838v.006zM8.392 43.225c-.598 1.709-.318 3.58.63 5.366 3.839-1.533 5.248-5.586 3.202-9.172-1.851.805-3.235 2.098-3.832 3.806zM99.652 9.845v16.852h-3.126V19.48h-8.71v7.217H84.69V9.845h3.127v6.952h8.709V9.845h3.126zM116.552 22.796h-8.426l-1.663 3.9h-3.221l7.585-16.85h3.08l7.604 16.85h-3.278l-1.681-3.9zm-1.039-2.456-3.174-7.368-3.155 7.368h6.329zM136.123 26.697l-3.438-4.93c-.217.027-.435.027-.652.027h-3.807v4.912H125.1V9.855h6.933c4.43 0 7.17 2.257 7.17 5.989 0 2.55-1.304 4.43-3.59 5.318l3.873 5.535h-3.372.009zM131.882 12.5h-3.656v6.716h3.656c2.739 0 4.166-1.247 4.166-3.373 0-2.125-1.417-3.343-4.166-3.343zM159.615 26.697l-.019-11.165-5.535 9.238h-1.398l-5.535-9.097v11.024h-2.985V9.845h2.578l6.688 11.165 6.575-11.165h2.578l.029 16.852h-2.976zM168.571 9.845h3.127v14.198h8.813v2.645h-11.94V9.836v.01zM197.059 24.07v2.627h-12.638V9.845h12.298v2.626h-9.172v4.383h8.133v2.579h-8.133v4.647h9.503l.009-.01zM200.583 24.912l1.086-2.428c1.351 1.086 3.486 1.852 5.564 1.852 2.626 0 3.731-.935 3.731-2.192 0-3.636-10.012-1.256-10.012-7.51 0-2.72 2.163-5.034 6.791-5.034 2.022 0 4.138.529 5.611 1.492l-.982 2.428c-1.521-.888-3.174-1.322-4.648-1.322-2.597 0-3.655 1.01-3.655 2.285 0 3.59 9.984 1.257 9.984 7.434 0 2.693-2.191 5.007-6.81 5.007-2.626 0-5.243-.822-6.641-2.022l-.019.01zM217.161 24.912l1.086-2.428c1.351 1.086 3.486 1.852 5.564 1.852 2.626 0 3.731-.935 3.731-2.192 0-3.636-10.013-1.256-10.013-7.51 0-2.72 2.164-5.034 6.792-5.034 2.022 0 4.137.529 5.611 1.492l-.982 2.428c-1.521-.888-3.174-1.322-4.648-1.322-2.597 0-3.655 1.01-3.655 2.285 0 3.59 9.984 1.257 9.984 7.434 0 2.693-2.191 5.007-6.811 5.007-2.626 0-5.242-.822-6.64-2.022l-.019.01zM108.145 43.955h-4.799v4.08h-1.785v-4.08h-4.714V42.53h11.307v1.426h-.009zm-1.361-2.758h-8.652v-5.044h8.652v5.044zm-1.747-3.627h-5.139v2.22h5.139v-2.22zM125.742 37.853h2.551v.831h-6.055v-.831h2.532v-1.767h.972v1.767zm2.107 4.42c0 1.625-1.086 2.74-2.607 2.74-1.521 0-2.579-1.115-2.579-2.74 0-1.624 1.067-2.748 2.579-2.748 1.511 0 2.607 1.124 2.607 2.749zm-.879 0c0-1.095-.717-1.908-1.719-1.908-1.001 0-1.691.813-1.691 1.909 0 1.095.718 1.898 1.691 1.898.973 0 1.719-.784 1.719-1.898zm5.507-6.546v12.12h-.944v-6.14h-1.663v5.545h-.935V36.03h.935v4.855h1.663v-5.148h.944v-.01zM153.221 38.07h-6.99v-.812h3.013v-1.52h.992v1.52h2.995v.812h-.01zm-3.495 5.196c-1.643 0-2.777-.926-2.777-2.249 0-1.322 1.143-2.248 2.777-2.248 1.634 0 2.777.926 2.777 2.248 0 1.323-1.152 2.248-2.777 2.248zm0-.794c1.068 0 1.842-.595 1.842-1.464 0-.87-.774-1.464-1.842-1.464-1.067 0-1.842.614-1.842 1.464s.775 1.464 1.842 1.464zm6.716 4.289v.83h-8.048v-3.494h.992v2.673h7.066l-.01-.01zm-1.284-6.83v-4.184h.991v9.162h-.991v-4.147h-2.154v-.83h2.154zM169.62 41.754v.813h-10.939v-.813h4.978v-1.237c-2.333-.104-3.75-.935-3.75-2.267 0-1.426 1.625-2.267 4.241-2.267 2.617 0 4.232.84 4.232 2.267 0 1.332-1.426 2.172-3.74 2.267v1.237h4.987-.009zm-4.959 2.088c0 1.663 1.964 2.862 4.09 3.183l-.406.775c-1.786-.312-3.486-1.162-4.204-2.532-.708 1.37-2.399 2.22-4.203 2.532l-.407-.775c2.126-.32 4.109-1.52 4.109-3.183v-.416h1.021v.416zm-.52-4.109c1.974 0 3.231-.538 3.231-1.474 0-.935-1.247-1.473-3.231-1.473-1.984 0-3.231.557-3.231 1.473 0 .917 1.247 1.474 3.231 1.474zM177.233 42.066h-5.573v-5.583h.973v1.88h3.636v-1.88h.964v5.583zm-.964-2.9h-3.636v2.088h3.636v-2.088zm4.364 6.442c0 1.408-1.492 2.239-3.957 2.239-2.466 0-3.968-.831-3.968-2.239 0-1.407 1.502-2.238 3.968-2.238 2.465 0 3.957.83 3.957 2.238zm-.973 0c0-.907-1.152-1.436-2.984-1.436-1.833 0-2.995.53-2.995 1.436 0 .907 1.143 1.436 2.995 1.436 1.851 0 2.984-.529 2.984-1.436zm2.664-6.791v.83h-1.813v3.392h-.992v-7.302h.992v3.089h1.813v-.01zM194.585 41.962v.813h-4.95v2.531h-.991v-2.531h-5.082v-.813h11.023zm-8.605 4.799h7.377v.831h-8.36v-3.467h.992v2.645l-.009-.01zm7.16-6.235h-8.133v-4.213h8.133v4.213zm-.964-3.4h-6.196v2.588h6.196v-2.588zM207.026 43.426h-5.007v4.43h-.992v-4.43h-4.959v-.83h10.958v.83zm-.964-2.229c-1.832-.321-3.731-1.379-4.515-2.89-.746 1.52-2.645 2.55-4.496 2.89l-.397-.803c2.097-.33 4.373-1.766 4.373-3.542v-.708h1.049v.708c0 1.748 2.305 3.212 4.383 3.542l-.397.803zM214.573 37.04c0 3.42-1.473 6.49-5.46 8.474l-.566-.775c3.306-1.625 4.855-4.014 5.044-6.886h-4.515v-.813h5.507-.01zm3.892-1.313v12.13h-.992V41.46h-2.928v-.831h2.928v-4.903h.992zM116.42 35.916h-2.456v11.988h2.456V35.916zM139.118 35.916h-.822v11.988h.822V35.916z" fill="#009373"/>
</svg>
